<svg xmlns="http://www.w3.org/2000/svg" xmlns:se="http://svg-edit.googlecode.com" xmlns:xlink="http://www.w3.org/1999/xlink" xmlns:dc="http://purl.org/dc/elements/1.1/" xmlns:cc="http://creativecommons.org/ns#" xmlns:rdf="http://www.w3.org/1999/02/22-rdf-syntax-ns#" xmlns:inkscape="http://www.inkscape.org/namespaces/inkscape" width="777" height="480" style="">                                    <title>my vector image</title>                                    <!-- Created with Vector Paint - http://www.vectorpaint.yaks.com/ https://chrome.google.com/webstore/detail/hnbpdiengicdefcjecjbnjnoifekhgdo -->                                    <rect id="backgroundrect" width="100%" height="100%" x="0" y="0" fill="#FFFFFF" stroke="none"/>                                <g class="currentLayer" style=""><title>Layer 1</title><path fill="#b80404" stroke="#242424" stroke-width="0" stroke-linejoin="round" stroke-dashoffset="" fill-rule="nonzero" marker-start="" marker-mid="" marker-end="" id="svg_8" d="M280.17494816145853,67.34613087050647 L425.6659835966515,67.34613087050647 C425.66639371065503,67.34613087050647 425.6667686720278,67.34627214132648 425.66702059919794,67.34655468296123 C425.6673076789997,67.34683722460458 425.6674658658283,67.34719040164998 425.6674658658283,67.34761421410869 L425.6659835966515,213.52040721951252 C425.6659835966515,229.66674359276658 412.6379565600168,242.75594412101992 396.5670945486169,242.75594412101992 L251.07604739587953,242.75594412101992 L251.07604739587953,242.75594412101992 C251.07523888541954,242.75594412101992 251.07459442056086,242.7552789709083 251.07459442056086,242.7544725499859 L251.07604739587953,96.58167954457736 L251.07604739587953,96.58167954457736 C251.07604739587953,80.43533728503934 264.10406857374363,67.3461367567905 280.17494816145853,67.3461367567905 L280.17494816145853,67.34613087050647 z" style="color: rgb(0, 0, 0);" class=""/><path fill="#bc8700" stroke="#242424" stroke-width="0" stroke-linejoin="round" stroke-dashoffset="" fill-rule="nonzero" marker-start="" marker-mid="" marker-end="" d="M431.9832302831802,218.49367275404578 L572.7152082946379,218.49367275404578 C572.7156049936838,218.49367275404578 572.7159676899523,218.49380940385294 572.7162113765057,218.49408270346214 C572.7164890658371,218.4943560030797 572.7166420783249,218.4946976275931 572.7166420783249,218.4951075770133 L572.7152082946379,359.8865426546269 C572.7152082946379,375.50472729843995 560.1133321105274,388.16577597006227 544.5681530385087,388.16577597006227 L403.836163692791,388.16577597006227 L403.836163692791,388.16577597006227 C403.83538162896184,388.16577597006227 403.8347582447509,388.16513257721954 403.8347582447509,388.16435253457854 L403.836163692791,246.7729174569604 L403.836163692791,246.7729174569604 C403.836163692791,231.1547271194056 416.4380342097732,218.4936784477876 431.9832302831802,218.4936784477876 L431.9832302831802,218.49367275404578 z" style="color: rgb(0, 0, 0);" class="" id="svg_3" fill-opacity="1"/><path fill="#0075c4" stroke="#242424" stroke-width="0" stroke-linejoin="round" stroke-dashoffset="" fill-rule="nonzero" marker-start="" marker-mid="" marker-end="" d="M434.1631819137452,66.30501397356032 L572.2234124536336,66.30501397356032 C572.2238016214866,66.30501397356032 572.2241574320931,66.30515595085993 572.2243964923423,66.30543990545387 C572.2246689098387,66.30572386005649 572.2248190174378,66.30607880330088 572.2248190174378,66.30650473519839 L572.2234124536336,213.21029156937274 C572.2234124536336,229.4373739693218 559.8607784894341,242.59203212900547 544.6107192151161,242.59203212900547 L406.5504775561446,242.59203212900547 L406.5504775561446,242.59203212900547 C406.5497103395243,242.59203212900547 406.549098790045,242.59136365255236 406.549098790045,242.5905531988089 L406.5504775561446,95.68676636462982 L406.5504775561446,95.68676636462982 C406.5504775561446,79.45967804896016 418.91310596080433,66.305019889281 434.1631819137452,66.305019889281 L434.1631819137452,66.30501397356032 z" style="color: rgb(0, 0, 0);" class="" fill-opacity="1" id="svg_6"/><path fill="#009900" stroke="#242424" stroke-width="0" stroke-linejoin="round" stroke-dashoffset="" fill-rule="nonzero" marker-start="" marker-mid="" marker-end="" d="M278.8900044858957,221.55091127275088 L421.7315422104737,221.55091127275088 C421.73194485600266,221.55091127275088 421.73231298905574,221.5510455397247 421.7325603284486,221.5513140736674 C421.73284218031813,221.55158260761837 421.73299748644934,221.55191827504862 421.73299748644934,221.55232107596896 L421.7315422104737,360.47824064716156 C421.7315422104737,375.8240829358642 408.94076503397065,388.26435436019216 393.1625651235687,388.26435436019216 L250.32101589483105,388.26435436019216 L250.32101589483105,388.26435436019216 C250.32022210793542,388.26435436019216 250.31958937925114,388.2637221865228 250.31958937925114,388.2629557458884 L250.32101589483105,249.33703617469138 L250.32101589483105,249.33703617469138 C250.32101589483105,233.99118829153164 263.1117873192561,221.55091686720797 278.8900044858957,221.55091686720797 L278.8900044858957,221.55091127275088 z" style="color: rgb(0, 0, 0);" class="" fill-opacity="1" id="svg_9"/><rect fill="#ffffff" stroke="#222222" stroke-width="0" stroke-linejoin="round" stroke-dashoffset="" fill-rule="nonzero" id="svg_1" x="250" y="216.90164184570312" width="323" height="27" style="color: rgb(0, 0, 0);" class=""/><rect fill="#ffffff" stroke="#222222" stroke-width="0" stroke-linejoin="round" stroke-dashoffset="" fill-rule="nonzero" id="svg_2" x="401.36065673828125" y="66.7213134765625" width="25" height="321.4590148925781" style="color: rgb(0, 0, 0);" class=""/><path fill="#ffffff" stroke="#222222" stroke-width="0" stroke-linejoin="round" stroke-dashoffset="" fill-rule="nonzero" marker-start="" marker-mid="" marker-end="" id="svg_10" d="M460.59913133133205,290.60028618297235 L460.59913133133205,290.60028618297235 C460.59913133133205,285.8310700621793 464.6285169485666,281.96485702735964 469.599015308655,281.96485702735964 L473.6898738184817,281.96485702735964 L473.6898738184817,281.96485702735964 L493.3259888670609,281.96485702735964 L530.1436943697437,281.96485702735964 C532.5306180231324,281.96485702735964 534.8197722867449,282.8746567779704 536.5075818095263,284.49411525115175 C538.1953807894251,286.113573724339 539.1435836185052,288.3100300039731 539.1435836185052,290.60028618297235 L539.1435836185052,312.1888615417341 L539.1435836185052,312.1888615417341 L539.1435836185052,325.1420028054449 L539.1435836185052,325.1420028054449 C539.1435836185052,329.9112213959552 535.1142006369863,333.77743196105763 530.1436970054633,333.77743196105763 L493.32599150278384,333.77743196105763 L467.67383022613944,355.73532157867857 L473.6898764542009,333.77743196105763 L469.5990179443711,333.77743196105763 C464.62851958428905,333.77743196105763 460.5991339670511,329.9112213959552 460.5991339670511,325.1420028054449 L460.5991339670511,325.1420028054449 L460.5991339670511,312.1888615417341 L460.5991339670511,312.1888615417341 L460.59913133133205,290.60028618297235 z" style="color: rgb(0, 0, 0);" class="" fill-opacity="1"/><path fill="#ffffff" stroke="#222222" stroke-width="0" stroke-linejoin="round" stroke-dashoffset="" fill-rule="nonzero" marker-start="" marker-mid="" marker-end="" id="svg_13" d="M303.4271631544892,356.54238967399044 C296.59285052629684,352.7134239816831 303.6005783476218,345.1523772281311 309.29919657124253,347.597603798582 C313.53985889697225,347.5874950469308 317.7805455098628,347.5941648434023 322.0212199791718,347.5922207550838 C322.0212199791718,338.8765936554797 322.0212199791718,330.160953866006 322.0212199791718,321.4453216904558 C311.39833354230865,308.0543931455655 300.77544710544316,294.6634646006775 290.1525630972946,281.2725360557893 C314.196202445293,281.179270576086 338.24006523518216,281.17937209505845 362.28369972574393,281.2725360557893 C351.851790528756,294.72963212874004 341.41988133176585,308.18672566372004 330.9879745634925,321.6438217366708 C330.9879745634925,330.29329399808177 330.9879745634925,338.9427561075989 330.9879745634925,347.5922207550838 C337.24939676023826,347.6505586324209 343.52153688151583,347.43359736112194 349.7737761023635,347.8130549751725 C354.69645836393465,349.1949362998318 352.7258903416204,357.64353043310547 347.941780910772,356.75291718042826 C333.1040469725239,356.6989623847131 318.26157703771054,356.8511748555833 303.4271631544892,356.54239221196343 L303.4271631544892,356.54238967399044 zM334.27995605970597,309.20433661256413 C339.06190150443365,307.30009449272615 338.3896352927946,299.06031219526415 333.2600142685726,298.2201767135083 C325.5220613525419,295.9927565597984 323.8511580481526,310.02038418020555 331.9842776599855,309.69119368520995 C332.769634612122,309.69658434262976 333.56760874484684,309.580373037253 334.2799536309909,309.20433661256413 L334.27995605970597,309.20433661256413 z" style="color: rgb(0, 0, 0);" class=""/><path fill="#ffffff" stroke="#242424" stroke-width="0" stroke-linejoin="round" stroke-dashoffset="" fill-rule="nonzero" marker-start="" marker-mid="" marker-end="" id="svg_5" d="M342.78630313342137,162.01226034244024 C339.41538243772845,160.6632964951231 338.06939643555825,156.9558792988611 338.06939643555825,156.9558792988611 S336.5506954154015,157.79563162766314 336.5506954154015,155.437178278718 S338.06939643555825,156.9558792988611 339.5880974557116,147.84962886822237 C339.5880974557116,147.84962886822237 343.7987704802098,146.66742434862235 342.9590181514077,136.89115876201907 L341.9465508046201,136.89115876201907 C341.9465508046201,136.89115876201907 344.474741326442,126.43892232918441 341.9465508046201,122.89826446063938 C339.41538243772845,119.35760659208162 338.405892936065,116.99915324313663 332.84030037398327,115.31071505014364 S329.3026203505438,113.95877335769269 325.25572880861847,114.13148837566449 C321.20883726669433,114.30122554851481 317.8349387258765,116.4899417246093 317.8349387258765,117.66916839908843 C317.8349387258765,117.66916839908843 315.3067482040554,117.83890557192613 314.29725870239207,118.85137291870095 C313.2847913556542,119.86384026547462 311.599331007807,124.58074696336544 311.599331007807,125.7629514829654 S312.44206118173236,134.8692019136167 313.2847913556542,136.55466226147587 L312.28125754428027,136.89115876201907 C311.4385273704072,146.66742434862235 315.65217824002565,147.84962886822237 315.65217824002565,147.84962886822237 C317.1679014150101,156.9558792988611 318.68660243521606,153.07872492977364 318.68660243521606,155.437178278718 S317.1679014150101,156.9558792988611 317.1679014150101,156.9558792988611 S315.82191541283834,160.6632964951231 312.45099471714707,162.01226034244024 C309.0800740214502,163.35824634461054 290.36729517699587,170.6063214094179 288.84561631171914,172.12502242958556 C287.3239374464423,173.64670129487496 287.49665246442856,180.72503918684336 287.49665246442856,180.72503918684336 L367.740645386139,180.72503918684336 C367.740645386139,180.72503918684336 367.9163382492454,173.64670129487496 366.3946593839695,172.12502242958556 C364.8700026735222,170.6063214094179 346.1572238291178,163.35824634461054 342.78630313342137,162.01226034244024 zM305.65257426810103,161.500070978779 C305.35776759949357,160.96405885402288 305.2118531877522,160.57693898614295 305.2118531877522,160.57693898614295 S303.92542408830536,161.28864397400548 303.92542408830536,159.29050988671148 S305.2118531877522,160.57693898614295 306.4982822871455,152.86134223471942 C306.4982822871455,152.86134223471942 310.0687186071162,151.8607862685056 309.3540357740596,143.57344325069454 L308.4964163744793,143.57344325069454 C308.4964163744793,143.57344325069454 308.9222482291213,141.81353677439066 309.20216567207353,139.60099783720023 C309.19025429148604,138.68382153481983 309.22003274290057,137.70708832970132 309.3123459421598,136.63506408018822 L309.4255040574195,135.36650205158435 C309.36296930947236,133.90140224391203 309.1068746276418,132.57030546742266 308.4964163744793,131.7156639129385 C306.35236787540384,128.7169738594292 305.4947484758255,126.71586192698902 300.78081962302855,125.28649626095972 C296.0668907702855,123.85713059493045 297.779151724374,124.1400258830028 294.3516519710732,124.28594029473251 C290.92117437260436,124.42887686134262 288.0624430405703,126.2840743820401 288.0624430405703,127.28760819338748 C288.0624430405703,127.28760819338748 285.9183945415476,127.43054475999767 285.06077514191554,128.28816415961478 C284.25377910964903,129.09516019189553 282.96139431996215,132.6417737507208 282.806546372753,133.90140224391203 L282.806546372753,134.73817672755493 C282.94650509420603,136.68270960239178 283.57483041824827,142.0309194694313 284.20315574228607,143.29054796262253 L283.35149203294685,143.57642109582892 C282.63978704506377,151.86376411363867 286.20724551986103,152.86432007986582 286.20724551986103,152.86432007986582 C287.4936746192583,160.57991683127764 288.7801037187019,157.29535364455037 288.7801037187019,159.2934877318449 S287.4936746192583,160.57991683127764 287.4936746192583,160.57991683127764 S286.35315993160185,163.72749914167514 283.49442859952325,164.86503598421817 C283.3127800461724,164.93650426751654 283.0805081254125,165.03179531192265 282.8035685276327,165.13899773686407 L282.8035685276327,180.72503918684336 L284.5158294817217,180.72503918684336 C284.4294719727527,176.9193531010416 284.7451235573115,172.00888646921769 286.73730195435206,170.0226637624708 C287.79741482332923,168.96552873862734 291.2725600988172,167.2264671782968 305.65257426810103,161.500070978779 zM372.14785618974133,134.53270541307404 C372.0287423841878,133.4070799510788 371.769669857237,132.40354613971795 371.278325409575,131.7156639129385 C369.1372547556732,128.71399601428354 368.2766575109198,126.71586192698902 363.5657065032965,125.28649626095972 C358.84879980538324,123.85713059493045 360.56403860464195,124.1400258830028 357.13356100617204,124.28594029473251 C353.7060612528227,124.42887686134262 350.8473299207891,126.2840743820401 350.8473299207891,127.28760819338748 C350.8473299207891,127.28760819338748 348.7062592668872,127.43054475999767 347.8456620221348,128.28816415961478 C347.03866598986804,129.0981380370289 345.7343698195938,132.6715522020957 345.5884554078515,133.9192693147396 L345.6867242974049,133.9192693147396 L345.92495190840805,136.63804192532243 C345.98450881118106,137.3259241521009 345.99046450142544,137.93638240529 346.0053537271324,138.55875203905077 C346.27335978949657,140.5419969006518 346.6307012060023,142.57884297474868 346.9880426225046,143.29054796262253 L346.13637891316637,143.57642109582892 C345.4246739252819,151.86376411363867 348.99511024520007,152.86432007986582 348.99511024520007,152.86432007986582 C350.28153934464797,160.57991683127764 351.5649905989204,157.29535364455037 351.5649905989204,159.2934877318449 S350.27856149952663,160.57991683127764 350.27856149952663,160.57991683127764 S350.12073570724795,161.00277084081165 349.79317274210655,161.58642848777203 C363.9974940482358,167.24433424912473 367.4428608723624,168.9714844289076 368.49106236080195,170.02564160760568 C370.48621860296305,172.0118643143525 370.79889234244774,176.9193531010416 370.7125348334325,180.72801703197777 L372.1419004994482,180.72801703197777 L372.1419004994482,164.9275707321029 C372.0942549772575,164.90970366128775 372.0287423841878,164.88290305504597 371.9870525522924,164.86503598421817 C369.13129906537847,163.72452129652913 367.9878065325569,160.57991683127764 367.9878065325569,160.57991683127764 S366.69839958798934,161.29162181915171 366.69839958798934,159.2934877318449 S367.9878065325569,160.57991683127764 369.27125778683,152.86432007986582 C369.27125778683,152.86432007986582 371.6654452774434,152.18239354336623 372.13892265432764,147.38210718161807 L372.13892265432764,143.72829119785177 C372.135944809203,143.67468998536856 372.135944809203,143.63002230829937 372.1299891189135,143.57642109582892 L371.269391874161,143.57642109582892 C371.269391874161,143.57642109582892 371.9096285787367,140.92613892339702 372.13892265432764,138.03465129484277 L372.13892265432764,134.53270541307404 L372.14785618974133,134.53270541307404 z" style="color: rgb(0, 0, 0);" class=""/><path fill="#ffffff" stroke="#242424" stroke-width="0" stroke-linejoin="round" stroke-dashoffset="" fill-rule="nonzero" marker-start="" marker-mid="" marker-end="" id="svg_7" d="M495.5469405745762,101.67256301676942 C472.2330208146355,101.67256301676942 453.33384604474696,120.57173778664858 453.33384604474696,143.88565754657176 C453.33384604474696,167.19957730650364 472.2330208146355,186.09875207638305 495.5469405745762,186.09875207638305 C518.8608603344812,186.09875207638305 537.7600351043696,167.19957730650364 537.7600351043696,143.88565754657176 C537.7600351043696,120.57173778664858 518.8608603344812,101.67256301676942 495.5469405745762,101.67256301676942 zM528.7620877496583,147.9228256624679 C528.7649921871616,147.92863453745736 528.7737054996368,147.92863453745736 528.7766099371406,147.93444341243787 C528.7127123122748,148.4775732237238 528.6197703124775,149.00908528502154 528.5297327501852,149.543501783814 C528.486166187773,149.50864853388606 528.4309818753813,149.47089084648107 528.393224187977,149.4389420340478 C528.0940671261696,149.17754265964552 527.6554970646499,149.06717403488966 527.4696130650935,149.10493172230375 C527.0136163786226,149.19787372209976 528.1347292510779,149.99078515780005 528.2450978758247,150.09824934506102 C528.271237813251,150.12438928251368 528.3351354381177,150.18538246986773 528.4251730004098,150.26670671968512 C525.4365068196628,165.69507868489387 511.84373935031294,177.38834403352638 495.54984501204444,177.38834403352638 C483.574849226564,177.38834403352638 473.0811165627447,171.05667029780582 467.1560640761014,161.58529963165577 C467.5133098877678,161.53882863176648 467.8531290745191,161.53882863176648 467.96930657423803,161.36456238215294 C468.11743288642555,161.14092069516468 468.2655591985773,160.66459294624016 468.4862964481065,160.40319357181994 C468.7099381351041,160.14469863490356 468.9655286344989,159.73807738582644 468.85516000975207,159.55509782373767 C468.7418869475017,159.3692138241539 469.1485081965876,158.55597132599053 469.11075050918294,158.33813851398273 C469.0729928217778,158.1174012644801 468.7418869475017,157.59460251565753 469.2966345087391,157.15603245415608 S470.4409828811884,156.04653733164432 470.47874056859325,155.8664622070593 C470.5135938185303,155.68348264496152 470.9608771925246,154.90509339672624 470.92021506758044,154.5362298350538 C470.88536181767904,154.1673662733906 470.47874056859325,153.7229873368906 470.2231500691622,153.61261871213492 C469.9617506947602,153.50515452487375 469.4099075709904,153.4673968374688 469.1891703214965,153.17404865063315 C468.9655286344989,152.87489158879916 468.34107457342276,152.58444783945825 468.12033732392945,152.65705877679127 C467.89960007439976,152.72966971413325 467.5278320752505,152.80228065146628 467.23448388841496,152.6134922143879 C466.9382312640758,152.43341708980267 466.45899907764783,152.2097754028053 466.2760195155587,152.06455352813066 C466.0872310784987,151.91933165345554 465.610903329574,151.8089630286998 465.39016608008006,151.8089630286998 C465.1665243930827,151.8089630286998 465.2013776429841,151.65793227904427 464.8731762062113,152.1023112155444 C464.5420703319709,152.54669015204433 464.8731762062113,152.6948164642141 464.28067095756865,152.6163966518825 C463.6881657089257,152.549594589539 464.35328189491065,152.51183690211639 464.6901966441227,152.06745796562527 C465.0183980808954,151.6259834666199 464.65243895675366,151.36458409220876 464.28067095756865,151.47785715445917 C463.9147118333913,151.58822577920603 464.1703023328217,151.8118674661945 463.5807015216468,151.92223609095032 C462.99110071047176,152.0267958407166 462.99110071047176,151.66083671653905 463.3599642721533,151.58822577920603 S464.3910395823155,151.18450896761465 464.3910395823155,151.03638265544512 C464.3910395823155,150.88825634328418 464.3184286449735,150.48163509420695 464.02217602063433,150.48163509420695 S463.79853433367265,150.1156759700207 463.3570598346496,149.63644378361028 C463.0898515852391,149.34309559676572 462.78779008596445,149.16011603468593 462.4886330241213,149.04393853494955 C462.2272336496838,147.3622692262405 462.05296740010556,145.65445998008755 462.05296740010556,143.9001797340364 C462.05296740010556,135.63995950266937 465.0706779557831,128.08261314470997 470.04307494457714,122.23888490788406 C470.11278144441553,122.18079615802469 470.1824879442538,122.1401340331071 470.2434811316169,122.13432515812667 C470.4874538810684,122.1081852206828 471.14385675457766,122.06171422079359 471.7247442532777,121.96296334601689 C472.31144062694835,121.86421247123127 472.9387991255287,121.49534890956775 473.1450141875755,121.51858440950798 C473.3454203746152,121.5418199094569 473.8449836234975,121.5418199094569 473.68523956136636,121.39659803479094 C473.52259106173204,121.2310450976617 473.2960449372667,120.88832147343328 472.9591301879828,120.88832147343328 S472.9358946880608,120.34809609966001 473.0259322503537,120.34809609966001 C473.11306537517754,120.34809609966001 473.5661576241441,120.42070703699304 473.5429221241865,120.66758422393073 C473.52259106173204,120.91446141087718 473.6794306863948,121.2310450976617 474.1267140603539,121.13519866037964 C474.5798063093553,121.03644778560297 474.51009980951756,120.66467978643587 474.42296668469305,120.5688333491538 C474.33002468489707,120.47008247438598 474.26322262256247,120.22320528743069 474.1760894977376,120.05184347532085 C474.08605193544525,119.87757722571624 474.1092874354029,119.65683997621387 474.58271074682403,119.60746453882098 C475.0532296207767,119.56099353893148 475.7038236193147,119.8020618508886 475.6805881193563,119.40996278926718 S475.6805881193563,118.59672029110376 475.8141922440614,118.37598304160116 C475.9507008062702,118.15815022958446 476.24404899310537,118.00711947992895 476.0843049309746,117.93450854259592 C475.9303697438157,117.86189760526304 475.72705911927244,118.03325941737279 475.5673150571061,117.66439585570035 C475.41047543247885,117.29553229403706 475.7038236193147,117.0254196071416 475.8809943064316,116.87729329498086 C475.939083056291,116.83372673257765 476.0755916184635,116.70302704536749 476.24114455560186,116.55199629571189 C481.7043914807679,112.68328555443966 488.3555533407939,110.38587549712062 495.5469405745762,110.38587549712062 C504.87889824103206,110.38587549712062 513.3279069094418,114.22844630095813 519.4039901457761,120.40618484951938 C519.3807546458186,120.47008247438598 519.3749457708108,120.55721559918368 519.3139525834833,120.5688333491538 C519.0903108964508,120.60659103657679 518.8318159595514,120.7518129112427 518.7940582721468,120.42070703699304 C518.7563005847418,120.08960116273477 518.7563005847418,119.45933822665998 518.4978056478077,119.83110622581825 C518.2393107108736,120.19996978748162 518.1289420861264,120.19996978748162 518.1289420861264,120.38585378707401 C518.1289420861264,120.5688333491538 518.3496793356554,120.7547173487375 518.2770683982782,121.08582322299583 C518.2015530234684,121.41692909723633 518.2015530234684,121.64057078423383 518.3177305232228,121.64057078423383 C518.4222902729622,121.64057078423383 518.6836896473645,121.30656047248954 519.0118910841369,121.2310450976617 C519.3488058333845,121.15843416031984 519.9384066445601,120.97545459824002 519.9761643319649,121.30656047248954 C520.0139220194054,121.64057078423383 520.3798811435832,121.74803497149475 520.0139220194054,121.89616128365546 C519.6421540202201,122.04428759583405 519.238437208638,121.9716766584921 519.162921833828,121.74803497149475 C519.0903108964508,121.52439328449728 518.8318159595514,121.52439328449728 518.5733210226531,121.71027728408109 C518.3177305232228,121.89325684616983 517.7629829619493,122.55837303217245 517.7629829619493,122.55837303217245 S516.8742250889667,122.96208984375474 516.7667609016872,122.88947890643078 C516.6505834019691,122.81686796908883 517.0601090885592,122.41024672000268 517.3563617128627,122.2272671579139 C517.6526143372021,122.04138315833035 517.8733515867314,121.63476190925323 517.7629829619493,121.52439328449728 C517.6526143372021,121.41402465975077 517.5073924625538,120.71405522382886 517.5800033998595,120.52817122424514 C517.6526143372021,120.3451916621566 517.9837202114779,120.0866967252401 517.617761087265,119.90081272566542 C517.2488975256194,119.7178331635765 516.9874981512171,119.49419147657923 516.6941499643813,119.3838228518324 S516.0667914658013,119.82529735082886 515.8082965288672,119.97632810048415 C515.5498015919685,120.12445441266277 515.5875592793741,120.30743397474257 515.2535489676296,120.3451916621566 C514.9224430933884,120.38294934957926 514.7046102813632,120.82442384857563 515.2535489676296,121.08291878550088 C515.8082965288672,121.34141372241757 515.99418052846,121.52439328449728 515.8460542162724,121.67542403415288 C515.6979279041211,121.82355034633153 515.0705694055408,121.60281309682881 515.0705694055408,121.60281309682881 S514.5913372191484,121.38207584731725 514.2921801572694,121.38207584731725 C513.998831970434,121.38207584731725 513.6270639713204,121.19909628523754 513.3337157844488,121.1613385978147 C513.0374631601451,121.12358091040969 512.4449579114308,121.12358091040969 512.3026404742866,121.27170722257048 C512.1545141621352,121.41983353473114 511.78274616295016,121.8613080337364 511.4893979761141,121.71318172157567 C511.1960497892792,121.5650554094149 511.1960497892792,121.41692909723633 510.7894285401926,121.5650554094149 C510.3828072911065,121.71318172157567 509.9790904795239,121.45468678465915 509.75835323002985,121.67542403415288 C509.53471154303304,121.89616128365546 509.72059554258914,121.89616128365546 509.01772166916425,121.67542403415288 C508.31775223327827,121.45468678465915 508.46878298293353,121.82355034633153 507.8007623594449,121.93391897107844 S506.73192936184176,121.82355034633153 506.5460453622494,122.04428759583405 C506.36016136269296,122.26792928282262 506.1016664257586,122.67455053190861 505.9942022385153,122.41315115749748 C505.8838336137328,122.15756065806676 506.36016136269296,121.71318172157567 506.17427736310015,121.5650554094149 C505.9942022385153,121.41692909723633 505.21581299024416,121.49244447207306 505.1083488030013,121.60281309682881 C504.99507574075045,121.71318172157567 505.0676866780928,122.1198029706529 505.14029761543395,122.26792928282262 C505.21581299024416,122.41315115749748 505.326181615027,123.0056564061583 505.1083488030013,122.89528778141133 C504.8847071160034,122.78491915666456 504.9224648034085,122.41315115749748 504.6988231164471,122.45381328240629 C504.47808586691735,122.4915709698198 504.21959092998316,122.60193959456677 504.10922230527217,122.67745496940356 C503.9988536804897,122.75006590673652 503.5544747439983,122.75006590673652 503.4441061192514,122.89819221890616 C503.33664193200843,123.0463185310667 503.48476824415985,123.452939780153 503.2959798070999,123.4877930300722 C503.1130002450109,123.52555071748594 502.9648739328592,123.67367702965569 502.5582526837373,123.41518209273914 C502.1516314346512,123.15668715582268 502.1516314346512,123.30481346798345 502.04126280990454,123.38032884282009 C501.9308941851932,123.452939780153 501.4139043113244,123.74919240448332 501.3761466239195,123.41518209273914 C501.3383889364786,123.08407621848067 501.4487575612616,122.97370759373385 501.11765168698525,122.75006590673652 C500.78364137527643,122.52932865724279 501.04213631217505,122.52932865724279 501.4865152487018,122.67745496940356 C501.9279897476535,122.82267684406946 502.4827373089274,122.89528778141133 503.2930753695962,122.63969728198052 C504.10631786773274,122.38120234506408 504.44032817951256,122.27083372031734 504.10631786773274,122.12270740814765 C503.77230755602415,121.9774855334816 503.44120168178364,121.82935922131205 502.92711624541874,121.75384384648433 C502.4072219341177,121.68123290915133 501.70725249816036,121.68123290915133 500.89400999998776,121.38498028481217 C500.08367193935476,121.0887276604906 499.89778793972664,120.97835903573474 499.56668206548625,120.90574809839282 C499.23267175374224,120.8302327235651 497.2053743833181,120.49912684931553 496.2788588229314,120.64725316147627 C495.35815213748,120.79537947364588 492.81386489322324,121.46049565964867 492.66283414356826,121.57086428439558 S492.291066144419,122.12270740814765 491.81473839549443,122.49447540731472 C491.3355062090665,122.86333896897813 490.4496527735525,123.71143471706958 489.7467789001621,123.85956102923919 C489.04680946420496,124.00768734139987 488.23356696603247,124.59728815257486 488.23356696603247,124.74541446473555 C488.23356696603247,124.89354077690518 488.5269151529041,125.44828833815203 488.45430421556205,125.55865696290783 C488.38169327822055,125.66902558765472 488.59952609024566,126.22377314890159 489.0090517768001,126.37189946107105 C489.4127685883827,126.51712133573719 490.1156424618078,126.48226808581819 490.150495711709,126.25862639882072 C490.1911578366536,126.0378891493271 490.74300096042373,125.55865696290783 490.7807586478283,125.88976283715732 C490.81851633523337,126.22377314890159 491.1873798969148,126.73785858523982 491.1118645220692,126.95859583474251 C491.039253584727,127.18223752174 491.1118645220692,127.4029747712425 491.37326389647137,127.36521708382872 C491.6288543959025,127.33036383391851 492.9968444553124,127.03411120957901 492.9968444553124,127.03411120957901 S493.4412233918036,126.8482272099956 493.36570801699344,126.55197458566525 C493.29019264214816,126.25862639882072 493.8478446408893,125.8520051497434 493.95530882816865,125.74163652498771 C494.06567745287964,125.63126790024091 494.4722987019659,125.18688896374073 493.9959709530415,125.04166708906592 C493.5109298916775,124.89354077690518 493.1449707674647,124.85578308949115 493.66196064133277,124.41430859048594 S494.5100563894067,124.41430859048594 495.1751725753912,123.74919240448332 C495.84028876141167,123.08407621848067 495.0270462632391,122.90109665640077 495.72992013666504,122.86333896897813 C496.4298895725866,122.82558128156413 497.17052113341674,122.79072803164513 497.0194903837614,123.01146528114779 C496.8742685090778,123.23220253065028 496.02617276096845,123.71433915455538 495.54403613707234,123.93507640406673 C495.0618995131409,124.15871809106426 495.1374148879867,124.5624349026466 495.3232988875433,124.78317215214952 C495.50627844963174,125.00390940165212 495.58469826198115,125.520899275485 495.9158041362572,125.44828833815203 C496.2440055729946,125.37567740081903 496.6535312595841,125.11718246390254 497.0194903837614,125.15494015130744 C497.39125838291096,125.18979340123545 498.1318899437414,125.11718246390254 498.23935413098457,125.11718246390254 C498.35262719323487,125.11718246390254 498.8667126295998,125.63417233773572 498.5704600052253,125.70678327506857 C498.2771118184252,125.77939421240154 497.9053438192404,125.74454096248235 497.2779853206599,125.77939421240154 C496.6535312595841,125.81715189982438 495.9535618236625,125.81715189982438 495.9535618236625,125.92752052457115 C495.9535618236625,126.04079358682174 496.8016575717357,126.2963840862435 496.50540494739676,126.48226808581819 C496.2091523230573,126.66524764790694 495.9158041362572,126.44451039840402 495.54403613707234,126.40675271099033 C495.1751725753912,126.37189946107105 494.95443532589763,126.88888933490412 494.844066701151,127.18223752174 C494.7307936389004,127.47849014607036 495.0270462632391,127.99548001991221 494.47520313950554,127.8095960203288 C493.9204555782317,127.62661645823997 493.51383432914514,127.62661645823997 493.3686124544616,127.69922739557288 C493.2204861423093,127.7718383329148 492.77901164332246,127.91996464507545 492.407243644137,128.0303332698313 C492.0412845199596,128.14070189457817 492.1865063946438,127.8473537077337 491.70436977071216,127.8473537077337 C491.22804202178736,127.8473537077337 491.22804202178736,127.8473537077337 491.22804202178736,127.8473537077337 L490.92888495998017,127.88511139515646 C490.92888495998017,127.88511139515646 490.63553677314485,127.70213183306763 490.5977790857394,127.4058792087373 C490.56002139829945,127.10962658440693 490.74300096042373,126.7785207101575 490.56002139829945,126.7059097728154 C490.37413739874296,126.63039439797859 489.7119256502256,126.74076302273446 489.60155702547866,126.96150027223715 C489.49118840069633,127.18223752174 489.37791533848116,127.58885877082602 489.52604165063326,127.77474277040946 C489.6770724003243,127.95772233248934 490.11854689931135,128.32658589416178 489.7119256502256,128.2162172694149 C489.30530440113955,128.10584864465903 488.79121896481,128.068090957245 488.494966340435,128.29173264424253 C488.20161815363497,128.5124698937451 487.68462827980204,128.9917020801644 487.68462827980204,128.9917020801644 S486.76101715688304,129.0643130174974 486.76101715688304,129.2879547044858 C486.76101715688304,129.51159639148298 486.76101715688304,129.80494457832782 486.4299112826064,129.84270226574174 C486.09590097086226,129.88045995315542 485.65152203437157,129.98792414041645 485.2100475353833,130.06343951524428 C484.7656685988928,130.1360504525772 484.80633072376565,130.3190300146661 484.2893408499685,130.35969213957455 S483.69683560128925,130.61818707649115 484.1789722251859,130.690798013833 C484.6582044116143,130.76340895116599 485.39302709747307,131.05966157549634 485.4307847848773,131.39076744975483 C485.4714469097864,131.72187332400432 485.39302709747307,132.0936413231713 485.2100475353833,132.4247471974209 C485.0851567231542,132.6541977593988 484.3241940998699,132.50026257224863 483.87981516337885,132.50026257224863 C483.4383406643911,132.50026257224863 482.555391666381,132.35213626008783 482.18362366719543,132.50026257224863 C481.81476010555053,132.6483888844182 481.88737104285605,133.38611600775386 481.99773966763905,133.71722188200334 C482.1110127298896,134.0483277562618 481.96288641770184,134.2342117558365 481.81476010555053,134.3445803805922 C481.66663379336245,134.4549490053391 481.62597166845427,134.7860548795974 481.81476010555053,134.937085629253 C481.99773966763905,135.0852119414137 482.1458659797909,135.41631781567202 482.29689672944613,135.454075503086 C482.4450230415981,135.49183319050866 482.9213507905227,135.34370687833012 483.1072347901147,135.52668644042788 C483.2931187897072,135.71257044000248 483.47609835179617,136.1540449390077 483.58646697654274,136.0436763142609 C483.6997400387935,135.933307689505 483.8449619134775,135.454075503086 484.03084591303366,135.56153969034693 C484.2167299125905,135.67481275258856 484.6582044116143,135.52668644042788 484.99221472339394,135.4889287530139 S485.50630015972314,135.08230750392784 485.8403104714317,134.89642350434428 C486.1714163457077,134.7134439422555 485.98553234611603,134.7134439422555 485.8780681588721,134.48980225525804 C485.76769953412526,134.26906500576436 486.2091740331128,134.01057006883897 486.4705734075153,133.75207513192245 C486.72616390698204,133.49358019500588 487.2053960933743,133.71431744450857 487.31866915562455,133.4180648201872 C487.42903778037135,133.12181219584792 487.4667954677765,132.60772675950955 487.75723921710824,132.6425800094287 C488.0563962789511,132.68033769684249 488.4630175280375,132.86331725893135 488.7186080274679,132.86331725893135 C488.9771029643667,132.86331725893135 489.5289460881367,132.45669600985423 489.6828812752959,132.3840850725121 C489.8281031499795,132.31147413517033 490.38285071121777,132.34632738509836 490.45836608602804,132.68033769684249 C490.53097702336925,133.01144357109195 491.15833552194925,133.4180648201872 491.30646183410096,133.49067575751127 C491.45458814628836,133.56328669485308 492.41305251914457,133.85953931918357 492.56408326880023,133.96990794393037 C492.7093051434838,134.08027656868603 492.9300423929421,134.41428688043925 493.0055577677875,134.7076350672661 C493.0781687051295,135.00388769160534 493.33666364202793,135.00388769160534 493.37732576697255,134.74539275467993 C493.41217901687367,134.4868978177634 493.18853732987645,134.00766563134434 493.44993670427874,134.04251888127231 C493.70552720370927,134.08027656868603 494.00468426555267,133.96700350644446 494.00468426555267,133.96700350644446 S493.2989059546231,133.4877713200255 493.04331545519267,133.37740269526952 C492.7877249557977,133.26703407051383 492.30268389436236,133.04629682101123 492.08194664490424,132.67743325934788 C491.86120939537494,132.3085696976756 491.30646183410096,132.2330543228567 491.3442195215414,131.8670951986793 C491.3819772089469,131.49823163701578 491.89896708277973,131.71896888650969 492.1923152696151,132.01522151083984 C492.48856789395495,132.31147413517033 493.22629501728187,132.7151909467706 493.48478995421567,132.9736858836871 C493.7403804536466,133.2321808205948 494.1499061402361,133.34254944535058 494.2602747649833,133.67655975710375 C494.37354782723355,134.00766563134434 494.7017492639706,134.3765291930166 494.8121178887171,134.5246555051863 C494.9224865134643,134.6727818173469 495.2913500751101,135.48602431551933 495.40462313736026,135.66900387759918 C495.514991762143,135.8519834396967 495.8838553238239,135.63415062768001 496.0697393233808,135.48602431551933 C496.2527188854694,135.33789800334966 496.58963363471764,135.26528706601667 496.6244868846189,134.96903444167737 C496.662244572024,134.6727818173469 496.1801079481279,134.4520445678444 496.0348860734797,134.34167594309736 C495.88675976129235,134.23130731834163 496.40374963516086,134.1209386935946 496.58963363471764,133.9728123814251 C496.77261319680605,133.82759050675918 497.10371907104667,133.56619113234802 497.25184538319854,133.78983281934538 C497.39997169538606,134.0134745063337 497.3273607580441,134.89642350434428 497.39997169538606,135.04454981651404 C497.47258263272795,135.1926761286747 498.21030975605476,135.41341337817732 498.36134050571053,135.59929737776088 C498.5065623803939,135.78227693984948 499.13682531644133,135.8577923146774 499.244289503721,135.74742368993049 C499.3575625659713,135.63705506517482 499.94716337714624,135.8229390647493 500.0981941268018,135.8577923146774 C500.24051156398184,135.89555000209108 500.68489050047293,135.78518137734434 500.98114312481266,135.71257044000248 C501.2803001866194,135.63995950266937 501.5736483734554,135.41631781567202 501.53589068605027,135.89555000209108 C501.4981329986452,136.37478218851052 501.3877643738986,137.112509311846 501.01599637471367,137.48137287351835 C500.6471328130678,137.8502364351817 500.79525912525554,138.0361204347651 500.4293000010422,138.0361204347651 C500.2550337514642,138.0361204347651 500.1010985642697,138.0361204347651 499.9762077520759,138.09711362212803 C499.8571258148534,137.9083251850587 499.6915728777157,137.75729443539436 499.4679311907182,137.81538318526273 C499.0264566917309,137.9257518100182 498.46880469298907,137.9257518100182 498.1028455687757,138.36722630901468 C497.73107756966215,138.81160524551473 497.58585569497876,138.8464584954339 497.51034032013297,138.6983321832729 C497.43772938282683,138.55020587110337 498.58207775523937,137.92284737252356 498.43104700554835,137.73696337293998 C498.28582513086496,137.5539838108512 497.39997169538606,137.62659474818435 496.91783507149,137.62659474818435 C496.4356984475587,137.62659474818435 496.0319816359759,137.33034212386275 495.66021363682677,137.25773118652103 C495.29425451264916,137.18512024918795 494.8121178887171,137.62659474818435 494.44615876454,137.9954583098566 C494.0743907653904,138.3643218715199 493.8188002659602,138.10582693460339 493.48478995421567,138.10582693460339 C493.1507796424716,138.10582693460339 492.5234211438918,137.62659474818435 492.5234211438918,137.62659474818435 S491.8960626452758,137.36809981126777 491.6375677083778,137.36809981126777 C491.3819772089469,137.36809981126777 490.8620828976099,136.88886762484876 490.71395658545833,136.88886762484876 C490.56873471077455,136.88886762484876 490.1621134616884,136.5548573131044 490.45836608602804,136.40673100093483 C490.75171427286296,136.2615091262687 491.0450624596988,136.5548573131044 490.75171427286296,135.74161481494104 C490.45836608602804,134.93127675426342 489.7932499000425,135.11425631636106 489.5347549631083,135.224624941099 C489.27916446371336,135.33789800334966 487.43194221787513,135.29723587844094 487.28381590572315,135.29723587844094 C487.13568959353546,135.29723587844094 486.0668565959332,135.66609944011321 485.73575072169206,135.81422575227387 C485.39883597247973,135.9623520644436 484.81213959877346,136.14823606401805 484.66401328662164,136.22084700135994 C484.5158869744336,136.29345793869314 483.7404021636663,136.07272068919042 483.4063918519575,136.2586046887739 C482.9678217904382,136.50257743822573 482.5612005413166,136.88596318735392 482.44792747910174,136.88596318735392 C482.337558854355,136.88596318735392 482.0035485426105,137.14445812427047 481.7828112931167,137.69920568552615 C481.55916960611967,138.2510488092784 481.8205689805221,138.73028099569726 481.41104329393204,138.91616499528087 C481.00732648235004,139.0991445573608 480.26669492151916,139.50867024395055 479.97334673468356,139.80201843077742 C479.6770941103442,140.09536661762195 479.30823054869865,141.1322508027827 478.94227142448545,141.6114829892017 C478.57340786284004,142.09071517562077 478.94227142448545,142.53218967462624 479.0148823618637,142.8284422989565 C479.0874932991692,143.1217904858011 479.34598823610395,143.67653804704813 478.94227142448545,144.19643235837574 C478.5356501754349,144.71342223220879 478.57340786284004,144.96901273163056 478.3875238632831,145.00677041904444 C478.20454430115876,145.04452810646723 478.57050342537207,145.18974998113322 478.6431143626783,145.55861354280552 C478.7157253000194,145.93038154196358 478.31200848843736,146.29924510363594 479.0148823618637,146.63035097788546 C479.71485179778466,146.95855241464025 480.04595767202534,147.26061391396897 480.22893723411414,147.6962795379758 C480.4148212336711,148.14065847447588 481.33843235662596,148.8783855978116 481.33843235662596,148.8783855978116 S482.0035485426105,149.47379528396692 482.337558854355,149.72938578339767 C482.66866472859533,149.98788072031437 482.77903335337817,149.83975440814453 482.85164429068425,149.58416390872281 C482.92425522802625,149.3227645343114 483.36863416455293,149.28210240941192 483.88271960088247,149.28210240941192 C484.3997094746796,149.28210240941192 484.76857303636035,149.39827990914813 485.28556291022915,149.3227645343114 C485.80255278402626,149.2501535969784 486.3195426578954,148.91323884773954 486.50542665745195,148.84062791039753 C486.68840621954115,148.76801697306473 487.3157647181206,148.36430016147312 487.79209246704517,148.65764834830892 C488.27422909097737,148.95680541014295 488.20161815363497,149.35761778423065 488.4601130905335,149.62192159613645 C488.7157035899643,149.87751209556723 489.15717808898734,149.72938578339767 489.49118840069633,149.47379528396692 C489.8222942749727,149.21239590956466 489.6770724003243,149.3227645343114 490.0807892118711,149.54640622130887 C490.48741046095694,149.76423903332574 490.6732944605495,149.9849762828194 490.3044308989036,150.32189103205832 C489.93266289971933,150.65009246882212 490.1563045867166,151.1728912176357 489.93266289971933,151.68697665397383 C489.7119256502256,152.20396652781585 489.74968333763064,152.27657746514893 490.1563045867166,152.49441027715676 C490.5629258358029,152.71514752665936 491.3006529591653,154.08604202357324 491.52139020862325,154.3474413979755 C491.74503189565587,154.60303189740642 491.448779271317,155.34075902074213 491.7072742082515,155.78513795723316 C491.96576914511434,156.22370801875257 492.2242640820489,156.5228650805687 491.9309158952131,156.7465067675661 C491.63175883340585,156.9643395795829 491.11767339707666,157.37386526615495 491.0828201471396,158.11159238949944 S491.230946459327,159.3634049491734 491.3790727714793,159.62480432358487 S491.8931582078082,160.5861731339179 492.0790422073651,160.84176363333947 C492.2649262069572,161.10025857025602 492.4856634564508,161.7276170688358 492.5205167063881,162.13423831792196 C492.55827439382875,162.54085956700814 492.4508102065498,163.0229961909132 492.6337897686388,163.24082900293 C492.8196737682309,163.4615662524325 492.9300423929421,163.79557656417683 493.26114826721846,164.0889247510125 C493.59515857896287,164.38808181283753 493.7026227662059,165.01253587393163 493.7026227662059,165.01253587393163 S493.8158958284567,165.27103081084832 493.8507490783578,165.67765205993433 C493.88560232833015,166.08427330901154 493.92336001573517,166.33986380844206 494.2922235773807,166.5257478080168 C494.6581827015938,166.7087273701145 494.9166776384571,166.74648505751955 495.10546607555295,166.56350549543075 C495.2884456376417,166.380525933351 496.2120567605609,166.33986380844206 496.691288946989,166.380525933351 C497.17052113341674,166.41828362075583 497.72236425715096,166.16269312133406 498.204500881047,165.8286828095898 S499.3866069409012,164.611723499835 499.6451018777998,164.3532285629185 C499.9035968147346,164.0918291885072 500.4931976259085,163.61259700208794 500.4234911260705,163.31924881525248 C500.35088018872864,163.02590062840778 500.19984943907355,162.7296480040864 500.4931976259085,162.58152169190788 C500.78945025024814,162.43049094225245 501.4923241236736,162.14004719291154 501.5271773735746,161.91640550591418 C501.5649350609802,161.69276381891675 501.2657779991727,160.76915269600656 501.1931670618308,160.5890775714035 C501.12346056199266,160.40319357181994 501.3790510614234,160.0662788225899 501.67239924825867,159.7003196984123 C501.97155631006615,159.3285516992543 502.8951674330207,159.07296119982362 503.04038930763335,158.92483488765387 C503.18851561985656,158.7708997005039 503.59513686890665,158.14935007691346 503.67065224375284,157.66721345299942 C503.7403587435908,157.18217239159085 503.5225259315651,156.59547601791067 503.67065224375284,156.33988551848893 C503.81587411843634,156.07848614407766 503.7084099311576,155.86065333206986 503.37149518194536,155.56149627024462 C503.04038930763335,155.2652436459142 503.1130002450109,154.37939021040899 503.0026316202281,154.234168335743 C502.8951674330207,154.08604202357324 502.9648739328592,153.30765277532913 503.1856111823171,153.2321374004924 C503.4063484318467,153.16533533814888 503.8884850557424,152.42179933983257 504.18473768008226,152.09069346557425 C504.48099030438584,151.75958759131575 505.32908605249537,150.7256078436499 505.73570730158133,150.65009246882212 C506.13942411319914,150.57748153148012 506.76678261177915,149.9849762828194 506.8045402991845,149.65387040856996 C506.8422979865889,149.31986009681688 507.9082265466885,148.06514309965698 507.9488886715968,147.80955260022637 C507.98664635900155,147.5481532258151 508.43102529552846,146.5896888529768 508.2451412959362,146.36604716597924 C508.0650661713159,146.1453099164858 506.6215607370952,146.7000574777237 506.4385811750064,146.7755728525603 C506.2526971754497,146.8481837898933 505.7386117390849,147.14443641422372 505.14320205293865,147.1037742893241 C504.5565056792315,147.0660166019012 504.8120961786972,146.5896888529768 504.77433849125663,146.36604716597924 C504.7394852413199,146.1453099164858 504.1121267427399,145.29721416839422 503.9640004305883,145.25945648097144 C503.81587411843634,145.22460323105236 503.37439961941357,144.7773198570576 503.18851561985656,144.33874979555608 C503.0055360577321,143.894370859056 502.7470411208333,143.34252773530372 502.4507884964939,143.0085174235506 C502.15453587215507,142.67741154930118 501.97155631006615,141.90483117604643 501.67239924825867,141.38493686470952 C501.3790510614234,140.8679469908766 501.12346056199266,140.20283080488286 500.8620611875544,139.72359861846368 C500.801068000227,139.60451668123258 500.7313615003891,139.4941480564769 500.6674638755227,139.38377943173015 C501.01018749974185,139.2995507444181 501.5068463111205,139.1456155572678 501.5678394985195,139.35763949428613 C501.63754599832174,139.6132299937081 502.0470716849115,140.16797755495492 502.119682622218,140.57459880404105 S502.5989148086814,140.83309374095765 502.6366724960867,141.2019573026298 C502.6773346209595,141.57372530178804 503.043293745173,142.4595787372843 503.18851561985656,142.56704292454543 C503.33954636951194,142.67741154930118 504.00175811799335,143.26991679796194 504.1121267427399,143.49065404746446 C504.22249536752275,143.71139129696738 504.3706216796742,144.00764392129759 504.48099030438584,144.5623914825534 C504.5913589291682,145.11423460630536 504.7017275539147,145.8519617296412 505.00088461572227,145.9623303543881 C505.29713724006143,146.07269897914378 506.29045486285435,145.77644635481337 506.47633886241135,145.66607773005765 S507.87627773425476,144.96320385664106 508.3206566707462,144.92544616923615 C508.76503560723654,144.89059291930812 508.8405509820827,144.591435857483 509.389489668349,144.48397167022196 C509.9442372295871,144.3736030454751 510.350858478673,143.96988623388376 510.7197220403543,143.67072917205857 C511.0885856020353,143.37738098522297 511.5329645385267,142.63965386188715 511.67818641321026,142.38115892497075 C511.82921716283033,142.12556842554005 512.1980807245114,141.93968442596557 512.012196724919,141.6463362391209 C511.82921716283033,141.34717917729586 511.0508279146301,140.90860911578517 510.75457529025596,140.8679469908766 C510.45832266591674,140.83309374095765 510.49608035335746,140.35095711704358 510.3131007912683,140.35095711704358 S510.16497447908034,140.60654761646543 509.79611091743493,140.79533605354376 C509.427247355754,140.9783156156325 509.0554793566044,141.34717917729586 508.79698441970623,141.2745682399628 S508.87249979451667,141.01607330304643 508.46878298293353,140.68496742879674 S507.9111309841918,140.2783461797108 507.9111309841918,140.0227556802889 C507.9111309841918,139.76426074337246 507.10369736102706,139.2821241194586 507.0281819861815,138.91326055778615 C506.9526666113356,138.54439699612288 507.5800251099513,138.02740712228984 507.7659091095081,138.36141743402513 C507.9488886715968,138.6925233082837 508.09991942125225,139.20951318211678 508.5762471701768,139.43025043161913 C509.0554793566044,139.65098768112196 509.49985829309577,140.0227556802889 509.7234999800934,140.09536661762195 C509.9442372295871,140.16797755495492 510.4989847908605,139.68874536853588 510.6819643529493,139.76426074337246 C510.86494391500264,139.83396724321952 511.2367119141876,140.49908342921321 511.5707222259315,140.61235649145476 C511.89892366266884,140.7227251162106 513.0084187851803,140.7604828036246 513.1943027847376,140.7604828036246 S514.1527671575931,140.7982404910295 514.3008934697808,140.57750324153577 C514.4490197819325,140.3567659920331 514.5593884067146,140.3567659920331 514.7452724062716,140.3567659920331 C514.9253475308566,140.3567659920331 515.2593578426009,141.02188217802686 515.5207572170391,141.0944931153688 C515.7792521539374,141.16710405271078 516.2584843403656,141.1322508027827 516.2207266529257,141.61438742669668 C516.1858734030237,142.09071517562077 516.4414639024542,142.50024086220174 516.6999588393529,142.535094112121 C516.9613582137557,142.56994736204 517.5509590249299,141.98034655086522 517.5509590249299,141.98034655086522 S517.5509590249299,142.90395767379317 517.5161057749934,143.2379679855375 C517.4754436501202,143.5661694222922 517.919822586612,144.7889376070366 517.919822586612,144.7889376070366 S518.4716657103819,145.93038154196358 518.6197920225333,146.1888764788802 S519.3952768333014,147.2199517890603 519.3952768333014,147.5539621007958 C519.3952768333014,147.88797241254875 519.4678877706071,148.40496228638196 519.6944338951082,148.40496228638196 C519.9151711446015,148.40496228638196 520.1359083940953,147.81536147520694 520.3914988935268,147.4435934760489 C520.6558027054322,147.0776343518711 520.7284136428099,146.55774004055243 520.8358778300535,146.1888764788802 C520.9462464548001,145.82001291721684 520.9462464548001,145.15489673120527 520.9462464548001,144.89930623178336 C520.9462464548001,144.6379068573722 521.1640792667897,144.41716960786954 521.6868780156306,144.19643235837574 C522.2038678894631,143.97569510887325 522.5698270136407,143.34833661029325 523.0113015126282,143.0143262985402 C523.4556804491199,142.6803159867958 523.4208271992184,142.12847286303492 524.3066806346959,142.12847286303492 C525.1925340702104,142.12847286303492 525.1141142578969,142.12847286303492 525.3377559448946,141.90483117604643 C525.5584931943889,141.68409392654365 525.7763260063786,141.53596761437416 525.889599068629,141.9425888634603 C525.9999676933759,142.3492101125376 526.6273261919557,142.93881092371254 526.7376948167372,143.08693723587297 C526.8480634414849,143.2379679855375 527.0688006909788,143.64168479712907 527.0368518785808,144.08606373362895 C526.9990941911402,144.5275382326254 527.071705128482,145.04452810646723 527.2546846905711,145.04452810646723 S527.8094322518085,144.41716960786954 527.8094322518085,144.41716960786954 S528.6197703124775,143.8682309216122 528.584917062577,144.45492729529226 C528.5442549376322,145.04452810646723 528.6575279998831,145.67188660504723 528.6575279998831,146.03784572922456 C528.6575279998831,146.19178091637485 528.7795143746084,146.4299447908371 528.9131184993136,146.64777760284497 C528.8985963118671,146.81913941495463 528.9015007493347,146.99340566456831 528.886978561888,147.1647674766779 C528.6226747499811,147.23447397652515 528.6197703124775,147.73984610038812 528.7620877496583,147.9228256624679 zM508.2741856708656,132.45379157235936 C508.4949229203591,132.59901344702536 508.5704382952051,132.8226551340227 508.7156601698892,133.04339238352537 C508.8666909195444,133.26412963302792 509.1222814189749,133.18861425820023 509.3052609810639,133.37449825777483 C509.488240543117,133.56038225735838 508.7882711071949,133.78111950686088 509.08742816900264,134.00185675636354 C509.3807763558742,134.22549844336106 509.52599823052213,135.10844744136284 509.56666035546624,135.3320891283601 C509.6044180428711,135.55282637786274 508.756322294762,135.66319500261858 508.4949229203591,135.62834175269936 C508.2364279834251,135.59058406527657 507.4667520477011,135.3320891283601 507.20244823575916,135.25947819102709 C506.9439532988606,135.18396281619934 506.79873142421224,134.26325613076602 507.12983729845274,134.298109380694 C507.4667520477011,134.335867068108 507.5393629850071,134.22549844336106 507.90532210918445,133.8943925691026 C508.2770901083692,133.56038225735838 507.35638342295385,133.41225594518878 507.09788848601943,133.33964500785575 C506.8393935490856,133.26703407051383 506.3194992377842,132.45379157235936 506.1365196756597,132.19529663543403 C505.9564445511107,131.93680169851734 506.0958575507871,131.53308488693503 506.5460453622494,131.23392782510075 C506.76678261177915,131.0858015129401 507.35638342295385,131.41690738718967 507.65263604725766,131.23392782510075 C507.94598423409303,131.0509482630211 508.2422368584324,130.82730657602355 508.3526054831794,130.75469563868182 C508.4658785454305,130.68208470134883 509.2036056687924,130.8650642634375 509.31106985603515,131.0858015129401 C509.4243429182501,131.30653876244284 509.8658174172731,131.640549074187 509.72059554258914,131.75091769894277 C509.56956479293416,131.86128632368965 508.90444860691326,131.97165494844546 508.6866157949235,131.75091769894277 C508.46878298293353,131.52727601194547 507.94598423409303,131.78577094886188 507.9082265466885,132.1923921979392 C507.86756442177966,132.60191788452016 508.05635285887615,132.3056652601897 508.2741856708656,132.45379157235936 zM498.0883233813289,133.08115007093923 C497.8646816943313,133.00853913360623 498.16093431867057,132.56416019709727 498.3845760056682,132.41603388493658 C498.60240881765776,132.26790757277598 498.8609037545931,131.8990440111036 499.08454544158985,131.5301804494403 C499.3052826910838,131.16131688776807 499.60153531542323,131.12355920035412 499.7845148775119,131.16131688776807 C499.96749443960044,131.19907457518178 500.3741156886513,131.86128632368965 500.48448431343354,132.08492801067808 C500.59485293818045,132.3056652601897 500.96371649982626,132.00941263585938 501.1147472495168,131.93680169851734 C501.2599691242009,131.86419076118452 501.4836108111626,131.640549074187 501.52136849860324,131.45756951209833 S501.89023206024865,131.16131688776807 502.2590956219302,131.16131688776807 S502.2968533093346,131.45756951209833 502.0383583724361,131.5301804494403 C501.77695899799807,131.60279138677313 501.9279897476535,131.75382213643758 502.3665598091731,131.8990440111036 C502.81093874566454,132.04717032327312 503.21755999475084,132.45379157235936 503.69969661868214,132.70938207178108 C504.17892880511056,132.9678770086977 504.2515397424166,133.48486688253064 503.95528711811323,133.55747781986366 C503.66193893124165,133.63008875719672 502.7760854957634,133.70560413203316 502.4420751840189,133.66784644461939 C502.1109693097783,133.63008875719672 501.7043480606921,133.2989828829562 501.2251158742284,133.22346750811946 C500.74588368783577,133.1508565707775 500.15337843919315,133.18570982070548 499.96749443960044,133.44710919511684 S499.1193986915268,133.5923310697828 498.8202416296839,133.5923310697828 C498.52398900534473,133.5923310697828 498.1580298811672,133.96119463145502 498.0854189438606,133.81597275678018 C498.0883233813289,133.81887719427496 498.30906063082296,133.156665445767 498.0883233813289,133.08115007093923 zM499.3430403785243,124.88482746442085 C499.5260199406129,124.36783759058807 500.55999968827933,124.9951960891766 500.3741156886513,125.25369102609307 C500.1911361265622,125.51509040049555 499.21814956629487,125.23626440113355 499.3430403785243,124.88482746442085 zM500.78073693773723,151.39072402965232 C500.96371649982626,151.68697665397383 500.3741156886513,152.6425365893263 500.04300981441065,152.5728300894883 C499.7148083776382,152.49441027715676 499.8222725649163,151.64921896656912 499.932641189699,151.4633349669854 C500.04300981441065,151.27745096740196 500.68489050047293,151.23097996751275 500.78073693773723,151.39072402965232 zM487.3825667804557,134.22549844336106 C487.4551777178329,134.07737213119148 487.269293718205,133.78111950686088 487.0137032188099,134.18774075594717 C486.9265700939858,134.33005819311825 487.3099558431492,134.37362475552183 487.3825667804557,134.22549844336106 zM509.52599823052213,120.7518129112427 C509.93552391711137,120.97255016074527 510.5106025408396,121.06258772303778 510.78361966522107,120.78957059865655 C511.0043569146791,120.5688333491538 510.82137735262654,120.1970653499958 510.63839779053717,120.16221210007657 C510.45251379094464,120.12445441266277 510.3363362912264,119.82820178832344 510.8184729151227,119.57261128890181 C511.2977051015504,119.3141163519852 511.8146949753832,118.98010604024097 512.3694425366211,118.90749510290806 C512.9212856603556,118.83488416556608 514.1760026575513,118.79712647815225 514.617477156574,118.90749510290806 C515.0589516555611,119.02076816514949 515.7269722790503,118.42535847899407 515.9099518411393,118.16976797957247 S515.3203510299638,117.728293480558 515.0996137804702,118.02164166739368 C514.8759720934727,118.31789429173298 513.8100435333735,118.24237891690532 513.586401846376,118.16976797957247 C513.3656645968822,118.0971570422304 511.5939577258539,118.46602060389378 511.2279986017119,118.46602060389378 C510.85623060249145,118.46602060389378 510.70810429037556,118.90749510290806 510.19401885404613,119.13113678989629 C509.67412454270925,119.35187403939909 508.974155106752,119.68588435114333 508.7156601698892,119.79625297589905 C508.4600696704226,119.90662160064599 508.2015747335243,120.34809609966001 508.4223119830178,120.423611474479 C508.64304923251115,120.49622241182098 509.1222814189749,120.53107566174012 509.52599823052213,120.7518129112427 zM490.150495711709,134.22549844336106 C490.33637971133726,133.96700350644446 490.00236939955784,133.59523550727744 489.8193898374686,133.59523550727744 C489.47085733824184,133.59523550727744 489.3023999636714,134.1499830685334 489.52023277566167,134.3329626306133 C489.7438744626587,134.5217510676915 489.9646117121529,134.48399338027755 490.150495711709,134.22549844336106 zM491.811833957991,135.2217205036132 C491.99771795754776,135.29433144094634 492.14293983223166,135.51797312794363 492.291066144419,135.55282637786274 C492.4420968940386,135.59058406527657 492.9213290805026,135.55282637786274 492.776107205819,135.18396281619934 S492.291066144419,134.81509925452707 492.1836019571756,134.81509925452707 C492.073233332393,134.81509925452707 491.59400114600106,134.70473062978024 491.4081171464081,134.81509925452707 C491.27160858419984,134.89642350434428 491.62594995839817,135.14910956628012 491.811833957991,135.2217205036132 zM481.91931985528964,129.24148370459653 C482.21266804216117,129.27924139201036 482.54958279137287,129.0585041425077 482.80517329080436,128.94813551776102 C483.06076379019873,128.83776689301405 483.432531789384,128.61702964351136 483.432531789384,128.2830193317584 C483.432531789384,127.95191345749996 483.3599208520417,127.65566083317853 483.2088901023863,127.50753452100884 C483.06076379019873,127.359408208839 482.8022688532999,127.32165052142528 482.5815316038064,127.359408208839 C482.24752129206206,127.41749695871613 482.21266804216117,127.76602945792541 481.99193079263193,127.76602945792541 C481.77119354313777,127.76602945792541 481.5126986062034,127.83864039525841 481.5853095435457,128.09713533218383 S481.8089512305428,128.53860983118008 481.5853095435457,128.64897845593597 C481.36457229405187,128.7622515181774 481.6201627934469,129.20663045467737 481.91931985528964,129.24148370459653 zM483.72878441368744,127.65566083317853 C484.0976479754043,127.80378714533919 484.8731327861363,127.95191345749996 484.57688016179674,128.1000397696784 C484.28062753745735,128.2481660818391 483.7636376636243,128.65188289343055 483.6910267262823,128.87552458042796 S484.3183852248621,129.319903516928 484.3183852248621,129.319903516928 S484.0947435379006,129.5783984538445 484.28062753745735,129.65100939116857 C484.4636070995459,129.72362032851063 484.57688016179674,129.39251445425228 484.8702283486325,129.39251445425228 C485.1635765355037,129.39251445425228 485.753177346643,129.57549401634984 486.04942997098186,129.57549401634984 C486.3485870327895,129.57549401634984 486.82491478171374,129.16887276725464 486.7871570943093,128.91037783033818 C486.7493994069037,128.65188289343055 486.38053584522316,128.24526164434445 486.04942997098186,128.09713533218383 C485.72122853421,127.94900902001399 485.34946053506036,127.28389283401125 485.12872328556637,127.1357665218506 C484.90798603603764,126.98764020968119 485.34946053506036,126.61877664800878 485.09096559812633,126.36028171109217 C484.8295662237239,126.10178677417571 484.64658666163524,126.13954446158971 484.35033403729545,125.95366046201494 C484.0540814129919,125.77068089992616 483.795586476058,125.99141814942897 483.612606913969,126.21215539893143 C483.42962735188047,126.43289264843415 483.2059856648826,126.17439771151766 482.98234397792083,126.24700864885057 C482.68609135354615,126.34866396112218 482.79936441579656,126.72914527276455 482.9474907279484,126.91212483485319 C483.09852147763974,127.1009132719226 483.3599208520417,127.50753452100884 483.72878441368744,127.65566083317853 zM520.8997754549194,147.3651736637264 C520.6587071429359,147.47263785098744 520.4553965183928,148.7302592856507 520.8997754549194,148.8783855978116 C521.3412499539066,149.029416347476 521.5997448908058,148.29168922413137 521.4545230161579,148.10290078706217 C521.3034922664666,147.9228256624679 521.2308813291601,147.21704735156564 520.8997754549194,147.3651736637264 zM507.4957964226305,156.85106651733238 C507.0339908611531,156.72036683013127 506.9817109862652,157.33320314124623 506.6128474245844,157.73982439033247 C506.2410794254706,158.14935007691346 505.83736261385246,158.47755151366812 505.6921407391684,158.43979382625432 C505.5411099895132,158.40203613884046 504.73077192884443,158.6982887631707 504.98926686577886,159.2501318869229 C505.2477618026779,159.80487944817878 505.2100041152727,160.35962700942562 504.951509178374,160.6210263838369 C504.6930142414398,160.87661688325878 505.172246427832,161.61434400659434 505.1025399279938,162.0209652556804 C505.0270245531839,162.4246820672628 505.2100041152727,162.68608144167408 505.7269939891059,162.68608144167408 S506.42986786253124,162.50019744209956 506.6506051120246,162.0209652556804 C506.87134236151877,161.53882863176648 506.90619561145576,161.05959644534738 507.1269328609499,160.6558796337559 C507.3505745479467,160.24635394717518 507.53645854753916,159.39535376159787 507.6468271722497,159.17461651209516 C507.757195797033,158.95678370009617 507.9779330465267,158.2568142641655 507.9430797966251,157.8472885775847 C507.9024176717165,157.44647620349696 507.757195797033,156.92367745467442 507.4957964226305,156.85106651733238 zM479.2559506738109,122.97951646871451 C479.055544486736,122.80525021910992 478.59083448779035,122.68326384439317 478.3671928008288,122.66002834444387 C478.1464555512992,122.63679284448583 477.92571830180594,122.83429459404849 477.43486836543434,122.83429459404849 C476.9469228665313,122.83429459404849 476.62453030473023,123.0288919061073 476.42702855519394,122.83429459404849 C476.22952680562264,122.63679284448583 475.413379869947,122.53804196971811 475.33786449513696,122.66002834444387 C475.239113620369,122.82558128156413 475.0445163083013,122.83139015655385 475.239113620369,123.17701821827688 C475.43951980740866,123.51974184250531 475.58764611959566,123.71724359205018 475.7590079317056,123.6940080921101 S476.51997055499055,123.64463265471701 476.5954859297999,123.84213440427064 C476.6680968671425,124.03963615382412 476.8685030541818,124.21099796594297 477.28383761574315,124.08901159121726 C477.7049810522763,123.96702521649124 478.0477046765319,123.89150984166355 478.1435511137956,123.74338352950281 C478.2393975510599,123.5952572173243 478.9074181745842,123.5720217173841 478.9074181745842,123.5720217173841 S479.45054798584323,123.1508782808331 479.2559506738109,122.97951646871451 z" style="color: rgb(0, 0, 0);" class=""/></g></svg>